<?xml version="1.0" encoding="UTF-8"?>
<svg version="1.1" xmlns="http://www.w3.org/2000/svg" width="1054" height="251">
<path d="M0 0 C347.82 0 695.64 0 1054 0 C1054 82.83 1054 165.66 1054 251 C706.18 251 358.36 251 0 251 C0 168.17 0 85.34 0 0 Z " fill="#303030" transform="translate(0,0)"/>
<path d="M0 0 C1.98903284 -0.06481323 3.97642181 -0.17498885 5.96340942 -0.28604126 C9.60408119 -0.33458993 12.59005618 -0.26537944 16.09011841 0.74642944 C19.07025413 3.71633119 20.55905598 6.86756788 22.09011841 10.74642944 C22.65678223 11.94489502 22.65678223 11.94489502 23.2348938 13.16757202 C33.55176733 35.04756657 33.28611843 63.0255959 33.2204895 86.68734741 C33.21502513 89.0365312 33.22053129 91.38553188 33.22683716 93.73471069 C33.22617791 95.24382569 33.22489995 96.75294058 33.22293091 98.26205444 C33.22495514 98.95679871 33.22697937 99.65154297 33.22906494 100.36734009 C33.21306928 103.659585 33.01640784 106.58700982 32.09011841 109.74642944 C31.89188174 112.05643729 31.72843713 114.36956086 31.59011841 116.68392944 C31.34360857 120.79976334 31.00626934 124.72299994 30.09011841 128.74642944 C6.06295543 135.13554775 -18.1586897 138.59824719 -42.90988159 140.74642944 C-43.0916394 142.40932007 -43.0916394 142.40932007 -43.27706909 144.10580444 C-43.44594455 145.56939178 -43.61523731 147.03293102 -43.78488159 148.49642944 C-43.8635144 149.22603882 -43.94214722 149.95564819 -44.02316284 150.70736694 C-44.46124335 154.41420201 -44.90850309 157.55095116 -46.90988159 160.74642944 C-51.30244374 160.22965743 -54.78083171 158.88340097 -57.90988159 155.74642944 C-60.25274417 152.23504235 -62.10443644 148.55735487 -63.90988159 144.74642944 C-64.28113159 143.98459351 -64.65238159 143.22275757 -65.03488159 142.43783569 C-74.59775386 120.88401813 -74.57578243 95.17945977 -76.15988159 72.10482788 C-76.77979389 49.32077998 -76.77979389 49.32077998 -82.90988159 27.74642944 C-83.97100303 24.76564284 -84.93841496 21.75734824 -85.90988159 18.74642944 C-69.65210581 11.21332636 -52.455707 7.0893613 -34.90988159 3.74642944 C-34.05732788 3.57981812 -33.20477417 3.41320679 -32.3263855 3.24154663 C-21.64156694 1.21811304 -10.8631386 0.3088668 0 0 Z " fill="#242424" transform="translate(143.90988159179688,46.253570556640625)"/>
<path d="M0 0 C0.70779099 -0.02273987 1.41558197 -0.04547974 2.14482117 -0.06890869 C5.45592813 -0.07925739 7.41774515 0.1551382 10.23217773 1.95996094 C12.12960265 3.96508391 13.39154787 5.89456859 14.6875 8.328125 C15.07808594 8.9984375 15.46867187 9.66875 15.87109375 10.359375 C16.93658582 12.32643728 17.83898816 14.25718084 18.6875 16.328125 C18.92525146 16.90344971 19.16300293 17.47877441 19.40795898 18.0715332 C21.29941538 22.84015097 22.44664587 27.45790497 23.25 32.515625 C23.37294434 33.25103516 23.49588867 33.98644531 23.62255859 34.74414062 C23.98637045 36.93747435 24.3383552 39.13241466 24.6875 41.328125 C24.88472656 42.54113281 25.08195313 43.75414062 25.28515625 45.00390625 C26.87717605 55.03952737 27.83497826 64.80388394 27.96875 74.96875 C27.98715942 76.05395935 28.00556885 77.1391687 28.02453613 78.25726318 C28.10267001 82.86575173 28.17104671 87.47437037 28.23974609 92.08300781 C28.29154259 95.46166001 28.34873351 98.84019111 28.40625 102.21875 C28.42661316 103.77822357 28.42661316 103.77822357 28.4473877 105.36920166 C28.47246399 106.82661774 28.47246399 106.82661774 28.49804688 108.31347656 C28.51057495 109.16347229 28.52310303 110.01346802 28.53601074 110.88922119 C28.69474954 113.44483902 29.16769459 115.82390562 29.6875 118.328125 C29.7534735 120.43136034 29.77312245 122.53648224 29.75 124.640625 C29.74097656 125.70925781 29.73195312 126.77789062 29.72265625 127.87890625 C29.70525391 129.09126953 29.70525391 129.09126953 29.6875 130.328125 C30.54472656 130.06257812 31.40195313 129.79703125 32.28515625 129.5234375 C35.75093821 128.45283518 39.21896118 127.38975721 42.6875 126.328125 C43.4403125 126.09351563 44.193125 125.85890625 44.96875 125.6171875 C48.09241589 124.67186756 50.35906139 124.328125 53.6875 124.328125 C54.03155895 130.43198571 53.69835697 135.41175278 51.44140625 141.125 C50.53231612 143.41135997 50.53231612 143.41135997 50.640625 146.31640625 C49.6875 149.328125 49.6875 149.328125 48.05834961 150.53759766 C45.70439581 151.746392 43.32798609 152.77269553 40.875 153.765625 C39.96991699 154.14831543 39.06483398 154.53100586 38.13232422 154.92529297 C35.32940031 156.09224638 32.5125659 157.21597691 29.6875 158.328125 C28.88812012 158.64958496 28.08874023 158.97104492 27.26513672 159.30224609 C4.45474836 168.35183553 -21.52385822 174.67564612 -46.0625 174.703125 C-47.22910156 174.72761719 -48.39570312 174.75210938 -49.59765625 174.77734375 C-56.32841539 174.80021156 -61.82023195 174.500414 -67.3125 170.328125 C-69.66796875 167.84765625 -69.66796875 167.84765625 -71.5 165.140625 C-72.15742187 164.16996094 -72.81484375 163.19929687 -73.4921875 162.19921875 C-79.55504496 152.63655731 -83.28574166 143.61716922 -84.87109375 132.359375 C-84.99455673 131.50782837 -85.11801971 130.65628174 -85.245224 129.77893066 C-86.80013963 118.51067492 -87.56039681 107.1688108 -88.375 95.828125 C-88.69563176 91.46327086 -89.02057523 87.09875031 -89.34765625 82.734375 C-89.42561432 81.68725342 -89.50357239 80.64013184 -89.58389282 79.5612793 C-90.3242659 69.79899818 -91.27872495 60.06323864 -92.3125 50.328125 C-92.82958527 50.59077148 -93.34667053 50.85341797 -93.87942505 51.12402344 C-95.30433592 51.84778769 -96.72931622 52.57141524 -98.15435791 53.29492188 C-99.6584184 54.05925606 -101.1613146 54.82588233 -102.66357422 55.59375 C-103.63061279 56.08101562 -103.63061279 56.08101562 -104.6171875 56.578125 C-105.27702637 56.91328125 -105.93686523 57.2484375 -106.61669922 57.59375 C-108.3125 58.328125 -108.3125 58.328125 -110.3125 58.328125 C-110.8214271 48.77160503 -110.06480271 41.14723138 -106.3125 32.328125 C-105.96960938 31.35617188 -105.62671875 30.38421875 -105.2734375 29.3828125 C-102.65287903 23.17800631 -99.31602641 20.1606779 -93.1875 17.515625 C-90.25978308 16.35314917 -87.30102609 15.32263243 -84.3125 14.328125 C-83.5297168 14.06161133 -82.74693359 13.79509766 -81.94042969 13.52050781 C-63.83381796 7.45570736 -45.53241328 4.32161078 -26.625 2.078125 C-25.89409149 1.98899841 -25.16318298 1.89987183 -24.41012573 1.80804443 C-16.28427267 0.83005395 -8.18662928 0.1414503 0 0 Z M-77.3125 18.328125 C-78.15522461 18.59302734 -78.99794922 18.85792969 -79.86621094 19.13085938 C-82.29366496 19.90412471 -84.7109494 20.70156386 -87.125 21.515625 C-87.84357178 21.75337646 -88.56214355 21.99112793 -89.30249023 22.23608398 C-91.47911806 22.97512713 -91.47911806 22.97512713 -94.3125 24.328125 C-95.66708012 28.39186536 -94.06939743 30.66856136 -92.3125 34.328125 C-91.5390625 35.8440625 -91.5390625 35.8440625 -90.75 37.390625 C-84.77709605 51.71055132 -86.108565 70.73231888 -85.0625 85.96972656 C-83.85340187 104.72275301 -83.85340187 104.72275301 -81.3125 123.328125 C-81.16345215 124.16762695 -81.0144043 125.00712891 -80.86083984 125.87207031 C-79.04062944 135.48486839 -76.61207803 144.49156892 -72.3125 153.328125 C-71.93351562 154.17117187 -71.55453125 155.01421875 -71.1640625 155.8828125 C-68.5099004 161.31582887 -65.18955071 165.29510945 -59.3125 167.328125 C-57.11913852 167.01930109 -57.11913852 167.01930109 -55.3125 166.328125 C-54.9989357 164.47413802 -54.68670451 162.61992556 -54.375 160.765625 C-54.20097656 159.73308594 -54.02695313 158.70054687 -53.84765625 157.63671875 C-53.29273232 154.20591171 -52.79426167 150.76989984 -52.3125 147.328125 C-50.34796875 147.18117187 -50.34796875 147.18117187 -48.34375 147.03125 C-25.00760135 145.16790733 -2.00626578 141.07915197 20.6875 135.328125 C21.87303846 130.12163525 22.08848057 124.92243232 22.40625 119.60546875 C22.6875 116.328125 22.6875 116.328125 23.19458008 114.57348633 C23.88966101 111.40723603 23.8366861 108.36531048 23.85546875 105.125 C23.8596582 104.41869446 23.86384766 103.71238892 23.86816406 102.98468018 C23.87797341 100.68243896 23.87794566 98.38038377 23.875 96.078125 C23.87472809 95.29179687 23.87445618 94.50546875 23.87417603 93.6953125 C23.96234275 57.71878265 23.96234275 57.71878265 14.6875 23.328125 C14.35621094 22.53148437 14.02492188 21.73484375 13.68359375 20.9140625 C11.66174259 16.1726233 9.2712732 11.78513377 6.6875 7.328125 C-22.20477471 6.30747399 -49.65659366 9.51094032 -77.3125 18.328125 Z " fill="#90D0C0" transform="translate(153.3125,39.671875)"/>
<path d="M0 0 C7.83081497 4.61147992 14.81714475 10.65329216 17.4375 19.5625 C17.4375 20.8825 17.4375 22.2025 17.4375 23.5625 C18.0975 23.5625 18.7575 23.5625 19.4375 23.5625 C19.4375 38.0825 19.4375 52.6025 19.4375 67.5625 C16.4675 67.5625 13.4975 67.5625 10.4375 67.5625 C10.4375 62.9425 10.4375 58.3225 10.4375 53.5625 C9.756875 54.284375 9.07625 55.00625 8.375 55.75 C1.24907558 62.75682819 -6.49839691 66.5495995 -16.6875 66.875 C-26.78247712 66.06088894 -34.11901578 63.40821471 -41.25 56 C-48.20074226 47.43910873 -50.54185507 38.27970897 -49.984375 27.41015625 C-49.08773686 19.23248433 -46.59704208 12.32884021 -40.5625 6.5625 C-28.67217128 -2.52878712 -14.19070262 -6.56639196 0 0 Z " fill="#363636" transform="translate(682.5625,97.4375)"/>
<path d="M0 0 C4.79947786 2.83941138 8.67809175 6.17017599 12.25 10.4375 C12.8275 11.076875 13.405 11.71625 14 12.375 C18.23186116 19.35757092 18.25 24.00907167 18.25 32.4375 C-1.22 32.4375 -20.69 32.4375 -40.75 32.4375 C-38.30651817 44.70222921 -38.30651817 44.70222921 -30.84765625 54.17578125 C-24.3771661 58.45329336 -17.25022944 58.38261562 -9.75 57.4375 C-1.56603689 55.12438561 3.81654626 50.66238758 8.25 43.4375 C11.21175123 44.05027612 12.63058783 44.69122522 15.25 46.4375 C12.50419918 54.67490245 8.16908009 58.94072626 0.84765625 63.17578125 C-7.94961529 67.44874171 -17.77990168 67.94516857 -27.21484375 65.5625 C-38.37862187 61.28281709 -43.86753921 54.13631509 -48.75 43.4375 C-51.31803412 36.18474909 -51.13240286 24.48794452 -48.125 17.375 C-47.37930563 16.03584644 -46.58746454 14.72126225 -45.75 13.4375 C-45.14865234 12.41462891 -45.14865234 12.41462891 -44.53515625 11.37109375 C-35.17089109 -2.93316056 -15.18677341 -7.25568844 0 0 Z " fill="#EBEBEB" transform="translate(349.75,97.5625)"/>
<path d="M0 0 C8.04237021 5.86033178 13.09506283 12.13806381 15.51953125 21.8359375 C15.51953125 24.8059375 15.51953125 27.7759375 15.51953125 30.8359375 C-4.28046875 30.8359375 -24.08046875 30.8359375 -44.48046875 30.8359375 C-41.40028903 42.12992979 -38.53601465 48.81713238 -28.75 54.9140625 C-23.07497844 57.21923477 -15.55607861 56.68589236 -9.73828125 55.078125 C-2.82297992 52.12107695 1.56621891 48.27837243 5.51953125 41.8359375 C8.48128248 42.44871362 9.90011908 43.08966272 12.51953125 44.8359375 C10.25705837 53.47447031 5.49343878 57.19046428 -1.8828125 61.5390625 C-10.64904624 65.91558821 -20.4136671 66.21126538 -29.875 64.06640625 C-37.74207516 61.2084059 -42.46002209 56.39129779 -47.48046875 49.8359375 C-48.0321875 49.14371094 -48.58390625 48.45148438 -49.15234375 47.73828125 C-54.32012694 40.33619179 -53.02947263 29.39274709 -52.19140625 20.91015625 C-50.33054612 11.31422827 -43.4907529 4.94385486 -36.203125 -1.03125 C-25.90617834 -7.43743474 -10.04674954 -5.98589553 0 0 Z " fill="#EAEAEA" transform="translate(433.48046875,99.1640625)"/>
<path d="M0 0 C4.80999039 2.678887 10.27233798 6.12471749 12.28515625 11.46875 C12.56640625 13.39453125 12.56640625 13.39453125 12.50390625 16.39453125 C13.16390625 16.39453125 13.82390625 16.39453125 14.50390625 16.39453125 C15.28290461 33.01316286 15.28290461 33.01316286 10.50390625 39.39453125 C9.983125 40.10351562 9.46234375 40.8125 8.92578125 41.54296875 C4.13469655 47.5210339 -0.76528483 50.49559998 -8.49609375 51.39453125 C-16.57561908 52.09587894 -22.05216228 50.98421004 -28.40625 45.8515625 C-35.00560767 39.72859158 -37.93975481 33.06918841 -38.80859375 24.20703125 C-38.09058957 15.44738021 -34.0990493 8.15880495 -27.49609375 2.39453125 C-18.5067025 -3.30646136 -9.8174252 -4.34793636 0 0 Z " fill="#323232" transform="translate(510.49609375,104.60546875)"/>
<path d="M0 0 C2.97 0 5.94 0 9 0 C9 11.88 9 23.76 9 36 C9.66 36 10.32 36 11 36 C11.22816406 35.40574219 11.45632813 34.81148437 11.69140625 34.19921875 C13.35918232 31.39635927 15.11968957 30.42208628 17.9375 28.8125 C18.81277344 28.30332031 19.68804688 27.79414062 20.58984375 27.26953125 C28.22907567 23.24562465 39.34845264 23.65485054 47.5390625 26.0234375 C55.94478734 29.95479718 63.39781611 36.00655457 67.5625 44.4375 C70.7993866 54.08793866 70.70935075 65.65611736 66.25 74.8125 C61.17133543 83.70016299 54.1191858 90.24148762 44.2890625 93.53125 C33.58755109 95.72268578 23.29268465 93.91826 14.125 88.125 C9.63347295 84.90316258 6.50810515 82.24413108 5.25 76.6875 C5.1675 75.800625 5.085 74.91375 5 74 C4.34 74 3.68 74 3 74 C-0.67787623 66.43214394 -0.38561219 59.00460834 -0.29296875 50.78125 C-0.28736451 49.31295203 -0.28309833 47.84464839 -0.28010559 46.37634277 C-0.26872184 42.53593099 -0.23931166 38.69586658 -0.20599365 34.85559082 C-0.17515211 30.92721249 -0.16157034 26.99877733 -0.14648438 23.0703125 C-0.11443467 15.380051 -0.0633182 7.69007441 0 0 Z M12 43 C7.76881535 50.27234862 8.24146612 58.8246904 9 67 C9.87100713 70.11876748 11.08176794 72.41070326 13 75 C13.70125 76.051875 14.4025 77.10375 15.125 78.1875 C19.12924979 82.65707546 24.66171262 85.45893202 30.5546875 86.4140625 C38.76214249 86.69531485 46.69174748 84.3269688 53 79 C59.46330082 70.87825029 62.14333036 63.40575352 61 53 C58.83034705 44.80208974 53.52806402 38.97294088 46.375 34.625 C33.96323638 28.64896566 20.79565077 32.81223185 12 43 Z " fill="#E8E8E8" transform="translate(549,70)"/>
<path d="M0 0 C2.97 0 5.94 0 9 0 C9.093153 8.41529663 9.16399237 16.8303737 9.20724869 25.24606037 C9.22802168 29.15486831 9.25614768 33.06332054 9.30175781 36.97192383 C9.34558743 40.75209682 9.36921422 44.53193016 9.37950897 48.31233788 C9.38683447 49.74629237 9.40113733 51.18023071 9.42292023 52.61403847 C9.59701893 64.56135909 8.05269864 75.49350842 -0.45703125 84.55078125 C-8.71870781 92.34810128 -19.45745734 94.48929371 -30.50390625 94.4140625 C-38.50155603 93.46685482 -45.9009552 89.21446085 -51 83 C-51.99 81.948125 -51.99 81.948125 -53 80.875 C-59.64838395 71.31794808 -61.38900288 62.40563342 -60 51 C-57.26725593 40.38202524 -51.88957048 34.26572472 -42.75 28.625 C-34.81067014 24.01427117 -25.98908199 23.87999172 -17 25 C-10.36096 27.14320219 -5.92080848 30.07919152 -1 35 C-0.67 23.45 -0.34 11.9 0 0 Z M-47 43 C-50.91832725 49.0586852 -52.47372349 54.77571671 -52 62 C-49.7125088 71.65455845 -44.80578365 78.0234505 -37 84 C-31.74227628 87.18230646 -25.2427956 86.57424505 -19.375 85.53515625 C-12.39877619 83.73792786 -7.45145104 80.78223874 -3.49609375 74.6796875 C-2.25575996 72.48171707 -1.09926559 70.27120989 0 68 C0.495 67.01 0.495 67.01 1 66 C1.0716735 63.44842345 1.09308442 60.92527029 1.0625 58.375 C1.05798828 57.66859375 1.05347656 56.9621875 1.04882812 56.234375 C1.03703875 54.48954725 1.01910324 52.744763 1 51 C0.34 51 -0.32 51 -1 51 C-0.979375 50.01 -0.95875 49.02 -0.9375 48 C-1.64462242 43.15817564 -4.75304765 40.77920834 -8.40234375 37.80078125 C-22.01474799 28.3642123 -36.07154305 30.76111722 -47 43 Z " fill="#E9E9E9" transform="translate(524,70)"/>
<path d="M0 0 C0.70779099 -0.02273987 1.41558197 -0.04547974 2.14482117 -0.06890869 C5.45592813 -0.07925739 7.41774515 0.1551382 10.23217773 1.95996094 C12.12960265 3.96508391 13.39154787 5.89456859 14.6875 8.328125 C15.07808594 8.9984375 15.46867187 9.66875 15.87109375 10.359375 C16.93658582 12.32643728 17.83898816 14.25718084 18.6875 16.328125 C18.92525146 16.90344971 19.16300293 17.47877441 19.40795898 18.0715332 C21.29941538 22.84015097 22.44664587 27.45790497 23.25 32.515625 C23.37294434 33.25103516 23.49588867 33.98644531 23.62255859 34.74414062 C23.98637045 36.93747435 24.3383552 39.13241466 24.6875 41.328125 C24.88472656 42.54113281 25.08195313 43.75414062 25.28515625 45.00390625 C26.87717605 55.03952737 27.83497826 64.80388394 27.96875 74.96875 C27.98715942 76.05395935 28.00556885 77.1391687 28.02453613 78.25726318 C28.10267001 82.86575173 28.17104671 87.47437037 28.23974609 92.08300781 C28.29154259 95.46166001 28.34873351 98.84019111 28.40625 102.21875 C28.42661316 103.77822357 28.42661316 103.77822357 28.4473877 105.36920166 C28.47246399 106.82661774 28.47246399 106.82661774 28.49804688 108.31347656 C28.51057495 109.16347229 28.52310303 110.01346802 28.53601074 110.88922119 C28.69474954 113.44483902 29.16769459 115.82390562 29.6875 118.328125 C29.7534735 120.43136034 29.77312245 122.53648224 29.75 124.640625 C29.74097656 125.70925781 29.73195312 126.77789062 29.72265625 127.87890625 C29.70525391 129.09126953 29.70525391 129.09126953 29.6875 130.328125 C30.6775 130.658125 31.6675 130.988125 32.6875 131.328125 C31.3675 131.328125 30.0475 131.328125 28.6875 131.328125 C25.24961287 110.86768997 25.36736181 90.01534858 24.6875 69.328125 C24.6875 80.878125 24.6875 92.428125 24.6875 104.328125 C24.3575 104.328125 24.0275 104.328125 23.6875 104.328125 C23.62804199 102.58631958 23.62804199 102.58631958 23.56738281 100.80932617 C22.71874026 73.23633513 22.71874026 73.23633513 19.8125 45.828125 C19.66329102 44.80098389 19.51408203 43.77384277 19.36035156 42.71557617 C17.35594116 30.46469357 12.23339457 19.3413604 6.6875 8.328125 C-28.55175004 7.08326019 -61.23699682 12.95771134 -94.3125 25.328125 C-92.33046485 31.5380463 -92.33046485 31.5380463 -89.75 37.515625 C-84.4997888 49.72715205 -85.39118854 65.90797073 -84.45263672 78.96118164 C-84.18684371 82.64973269 -83.91232082 86.33756085 -83.63671875 90.02539062 C-83.46302646 92.39319143 -83.28983198 94.76102882 -83.1171875 97.12890625 C-83.03596649 98.21972 -82.95474548 99.31053375 -82.87106323 100.43440247 C-82.44552047 106.41781545 -82.23178338 112.32962641 -82.3125 118.328125 C-82.6425 118.328125 -82.9725 118.328125 -83.3125 118.328125 C-83.6425 116.678125 -83.9725 115.028125 -84.3125 113.328125 C-84.3125 118.278125 -84.3125 123.228125 -84.3125 128.328125 C-84.6425 128.328125 -84.9725 128.328125 -85.3125 128.328125 C-87.14214715 109.44922562 -88.82458688 90.56475395 -90.30981445 71.65551758 C-90.87174967 64.53256252 -91.45688901 57.42323878 -92.3125 50.328125 C-93.44429687 50.905625 -94.57609375 51.483125 -95.7421875 52.078125 C-97.22385207 52.82833491 -98.70562873 53.57832347 -100.1875 54.328125 C-101.30705078 54.90046875 -101.30705078 54.90046875 -102.44921875 55.484375 C-103.16464844 55.8453125 -103.88007812 56.20625 -104.6171875 56.578125 C-105.27702637 56.91328125 -105.93686523 57.2484375 -106.61669922 57.59375 C-108.3125 58.328125 -108.3125 58.328125 -110.3125 58.328125 C-110.8214271 48.77160503 -110.06480271 41.14723138 -106.3125 32.328125 C-105.96960938 31.35617188 -105.62671875 30.38421875 -105.2734375 29.3828125 C-102.65287903 23.17800631 -99.31602641 20.1606779 -93.1875 17.515625 C-90.25978308 16.35314917 -87.30102609 15.32263243 -84.3125 14.328125 C-83.5297168 14.06161133 -82.74693359 13.79509766 -81.94042969 13.52050781 C-63.83381796 7.45570736 -45.53241328 4.32161078 -26.625 2.078125 C-25.89409149 1.98899841 -25.16318298 1.89987183 -24.41012573 1.80804443 C-16.28427267 0.83005395 -8.18662928 0.1414503 0 0 Z " fill="#8BC8B9" transform="translate(153.3125,39.671875)"/>
<path d="M0 0 C7.83081497 4.61147992 14.81714475 10.65329216 17.4375 19.5625 C17.4375 20.8825 17.4375 22.2025 17.4375 23.5625 C18.0975 23.5625 18.7575 23.5625 19.4375 23.5625 C19.4375 38.0825 19.4375 52.6025 19.4375 67.5625 C16.4675 67.5625 13.4975 67.5625 10.4375 67.5625 C10.4375 62.9425 10.4375 58.3225 10.4375 53.5625 C9.756875 54.284375 9.07625 55.00625 8.375 55.75 C1.24907558 62.75682819 -6.49839691 66.5495995 -16.6875 66.875 C-26.78247712 66.06088894 -34.11901578 63.40821471 -41.25 56 C-48.20074226 47.43910873 -50.54185507 38.27970897 -49.984375 27.41015625 C-49.08773686 19.23248433 -46.59704208 12.32884021 -40.5625 6.5625 C-28.67217128 -2.52878712 -14.19070262 -6.56639196 0 0 Z M-36.8984375 15.26953125 C-41.89235428 22.15082034 -41.37499058 31.47144794 -40.5625 39.5625 C-38.25786575 47.42294895 -33.56314778 52.40304933 -26.76953125 56.6953125 C-21.18803123 58.88839746 -13.80640819 58.41428092 -8.078125 56.91015625 C-3.61316851 54.89400342 -0.7962329 51.94402798 2.11328125 48.05078125 C3.4375 46.5625 3.4375 46.5625 6.4375 45.5625 C9.80327284 38.15554839 9.80946701 26.7892336 7.4375 19 C3.60482935 12.41259732 -2.17353017 7.6217211 -9.5625 5.5625 C-21.78038007 4.30938409 -28.25216501 6.91606082 -36.8984375 15.26953125 Z " fill="#EBEBEB" transform="translate(682.5625,97.4375)"/>
<path d="M0 0 C0.38824501 5.95309017 0.09487534 11.76385236 -3 17 C-10.53424721 23.04843581 -21.121575 24.92008518 -30.31298828 27.28759766 C-34.34990851 28.35789869 -38.35600671 29.53148175 -42.36791992 30.69140625 C-47.56439566 32.18089903 -52.77738832 33.60518054 -58 35 C-58.73927734 35.19932129 -59.47855469 35.39864258 -60.24023438 35.60400391 C-73.59376921 39.06861506 -87.31877394 38.2700242 -101 38 C-101 33.05 -101 28.1 -101 23 C-91.1611184 21.30947052 -81.34487453 19.70772316 -71.4296875 18.52734375 C-68.26222929 18.04031999 -65.22851048 17.32344416 -62.12988281 16.51538086 C-59.10895792 15.78438906 -56.05984726 15.28316948 -52.99755859 14.75805664 C-37.40415127 12.0441554 -21.16140281 8.31774108 -7.0859375 0.84765625 C-4.60724276 -0.1596036 -2.65081642 -0.15346832 0 0 Z " fill="#252626" transform="translate(203,169)"/>
<path d="M0 0 C2.97 0 5.94 0 9 0 C9 16.83 9 33.66 9 51 C17.84751628 43.79485973 17.84751628 43.79485973 26.3125 36.25 C28.19883398 34.48976475 30.09449561 32.73946459 32 31 C32.47759766 30.52860596 32.95519531 30.05721191 33.44726562 29.5715332 C36.12890579 27.06834432 37.76589602 26.03332915 41.4296875 25.51171875 C43.13511719 25.59873047 43.13511719 25.59873047 44.875 25.6875 C46.60363281 25.75517578 46.60363281 25.75517578 48.3671875 25.82421875 C49.67042969 25.91123047 49.67042969 25.91123047 51 26 C49.89388002 27.10611998 48.7873709 28.2118519 47.6796875 29.31640625 C46.42982266 30.56917776 45.18597249 31.82795574 43.9453125 33.08984375 C39.67956909 37.40724841 35.34746039 41.55586707 30.7265625 45.4921875 C30.15679688 45.98976562 29.58703125 46.48734375 29 47 C28.11441406 47.71542969 28.11441406 47.71542969 27.2109375 48.4453125 C26.61152344 49.21488281 26.61152344 49.21488281 26 50 C26.45222476 53.11509999 27.60261204 55.14944515 29.44921875 57.66015625 C29.96137939 58.36277588 30.47354004 59.06539551 31.0012207 59.78930664 C31.83592896 60.91453735 31.83592896 60.91453735 32.6875 62.0625 C33.25750732 62.84165771 33.82751465 63.62081543 34.41479492 64.42358398 C36.26921212 66.95453453 38.13325018 69.47813382 40 72 C40.65516602 72.88558594 41.31033203 73.77117187 41.98535156 74.68359375 C42.64245117 75.57175781 43.29955078 76.45992188 43.9765625 77.375 C44.61762939 78.2424585 45.25869629 79.10991699 45.91918945 80.00366211 C47.16999926 81.69415052 48.42369269 83.38250954 49.68041992 85.06860352 C50.24607666 85.83100342 50.8117334 86.59340332 51.39453125 87.37890625 C51.89831299 88.0551001 52.40209473 88.73129395 52.92114258 89.42797852 C54 91 54 91 54 92 C49.85135723 92.62229641 46.13695052 92.77920258 42 92 C39.00700376 89.75111885 37.19426695 86.94256324 35.18994141 83.80761719 C33.23886914 80.84378069 31.10868614 78.01177354 29.00952148 75.15185547 C24.88139957 69.51671416 20.83201449 63.8410318 17 58 C13.60973298 58.60540482 11.4570434 59.55844749 9 62 C8.35402587 65.18823344 8.35402587 65.18823344 8.390625 68.85546875 C8.37408875 69.51710526 8.35755249 70.17874176 8.34051514 70.86042786 C8.29200712 72.96954601 8.27066073 75.07794323 8.25 77.1875 C8.22184223 78.61917695 8.19191505 80.05082028 8.16015625 81.48242188 C8.08625107 84.98812393 8.03669212 88.49368875 8 92 C5.36 92 2.72 92 0 92 C0 61.64 0 31.28 0 0 Z " fill="#EAEAEA" transform="translate(799,72)"/>
<path d="M0 0 C8.51380455 5.20699351 8.51380455 5.20699351 9.73828125 9.72265625 C9.82464844 10.47417969 9.91101563 11.22570312 10 12 C6.5768546 14.07833828 6.5768546 14.07833828 4.1015625 13.7421875 C0.94680082 12.62805234 -1.24660855 10.58022332 -3.8046875 8.47265625 C-11.07384876 3.59636836 -20.59383983 4.12959 -29 5 C-34.50131928 6.46649001 -38.28118376 9.76468151 -42 14 C-42.7425 14.845625 -43.485 15.69125 -44.25 16.5625 C-48.26939519 22.16094331 -47.55167667 29.38765007 -47 36 C-45.16349149 42.99972099 -41.04597361 49.12701874 -35.140625 53.3203125 C-27.68877625 57.32638157 -18.35757 57.37018313 -10.28125 55.3046875 C-5.08954487 53.18888986 -1.00989181 49.86806284 3 46 C6.42559084 47.20358597 8.53258609 48.35892646 11 51 C4.24143628 58.79656839 -3.60063518 63.97582013 -14 65 C-25.80564636 65.78618387 -35.48944304 65.08429956 -44.8125 57.3125 C-52.42575415 49.98576617 -57.22733681 42.13041012 -57.4375 31.375 C-57.26859999 21.36767453 -53.89034789 13.0005272 -46.95703125 5.75 C-34.03504563 -5.80498914 -15.6019651 -7.91672413 0 0 Z " fill="#EAEAEA" transform="translate(772,99)"/>
<path d="M0 0 C2.97 0 5.94 0 9 0 C14.13249212 9.70676758 18.71096156 19.64733939 23.10635376 29.70599365 C23.70152316 31.06730417 24.29915611 32.42754031 24.89926147 33.78668213 C25.75320715 35.72426051 26.59683223 37.66600491 27.4375 39.609375 C27.93121094 40.74342773 28.42492187 41.87748047 28.93359375 43.04589844 C30 46 30 46 30 50 C30.99 50 31.98 50 33 50 C33.1131958 49.30124756 33.2263916 48.60249512 33.34301758 47.88256836 C34.07469524 44.67226805 35.20023533 41.89915985 36.51171875 38.87890625 C37.02283203 37.69490234 37.53394531 36.51089844 38.06054688 35.29101562 C38.60271772 34.04811301 39.14503579 32.80527461 39.6875 31.5625 C40.20505859 30.36689453 40.72261719 29.17128906 41.25585938 27.93945312 C42.30267634 25.52121468 43.3519998 23.10405973 44.40380859 20.68798828 C45.50383622 18.15557921 46.58839139 15.61719809 47.66259766 13.07373047 C47.93223831 12.43717026 48.20187897 11.80061005 48.47969055 11.14476013 C49.22670148 9.37860596 49.97050446 7.61109595 50.71411133 5.84350586 C52 3 52 3 54 0 C56.1640625 -0.29296875 56.1640625 -0.29296875 58.625 -0.1875 C59.44226563 -0.16042969 60.25953125 -0.13335937 61.1015625 -0.10546875 C61.72804688 -0.07066406 62.35453125 -0.03585938 63 0 C61.66617512 4.20003756 60.09935606 8.18014718 58.27734375 12.19140625 C57.74302734 13.3736377 57.20871094 14.55586914 56.65820312 15.77392578 C56.37726807 16.39237366 56.09633301 17.01082153 55.80688477 17.64801025 C54.33179272 20.89634022 52.8664895 24.14906793 51.40234375 27.40234375 C51.11032074 28.05106445 50.81829773 28.69978516 50.51742554 29.36816406 C47.56203509 35.94883761 44.7208908 42.57651854 41.89892578 49.21533203 C39.73090945 54.31123565 37.4954541 59.3676342 35.1796875 64.3984375 C31.20611488 73.1613493 27.52616785 82.04895854 24 91 C21.03 91 18.06 91 15 91 C15.61556493 87.24014293 16.71002544 84.13835944 18.3203125 80.69140625 C18.77277344 79.69689453 19.22523438 78.70238281 19.69140625 77.67773438 C20.64702427 75.60115299 21.61057826 73.52820528 22.58203125 71.45898438 C23.25685547 69.9652832 23.25685547 69.9652832 23.9453125 68.44140625 C24.36312988 67.54107666 24.78094727 66.64074707 25.21142578 65.71313477 C26.49402012 61.30029549 25.16690437 57.33421624 24 53 C23.34 53 22.68 53 22 53 C21.74605469 52.11957031 21.49210938 51.23914063 21.23046875 50.33203125 C20.88628906 49.17058594 20.54210937 48.00914062 20.1875 46.8125 C19.85105469 45.66394531 19.51460937 44.51539063 19.16796875 43.33203125 C18.0685742 40.1956314 16.73666444 37.81278397 15 35 C14.29116642 33.39994292 13.58651345 31.79773153 12.91503906 30.18164062 C11.75781476 27.42258076 10.54664235 24.68913388 9.3359375 21.953125 C8.85382812 20.86128906 8.37171875 19.76945312 7.875 18.64453125 C6.86794712 16.3655496 5.86012394 14.08690819 4.8515625 11.80859375 C4.37203125 10.72191406 3.8925 9.63523437 3.3984375 8.515625 C2.96192871 7.52852539 2.52541992 6.54142578 2.07568359 5.52441406 C1 3 1 3 0 0 Z " fill="#E9E9E9" transform="translate(920,96)"/>
<path d="M0 0 C1.24652344 -0.01417969 2.49304688 -0.02835937 3.77734375 -0.04296875 C7.0625 0.1875 7.0625 0.1875 10.0625 2.1875 C9.7325 4.4975 9.4025 6.8075 9.0625 9.1875 C8.17046875 9.14109375 7.2784375 9.0946875 6.359375 9.046875 C5.18890625 9.01078125 4.0184375 8.9746875 2.8125 8.9375 C1.65234375 8.89109375 0.4921875 8.8446875 -0.703125 8.796875 C-4.0021547 8.91457638 -4.0021547 8.91457638 -6.296875 11.015625 C-9.28784642 14.97510145 -9.2282468 19.10372659 -9.5 23.875 C-9.54318359 24.57689453 -9.58636719 25.27878906 -9.63085938 26.00195312 C-9.7366736 27.73025206 -9.83756581 29.4588511 -9.9375 31.1875 C-5.3175 31.1875 -0.6975 31.1875 4.0625 31.1875 C4.0625 33.8275 4.0625 36.4675 4.0625 39.1875 C-0.8875 39.1875 -5.8375 39.1875 -10.9375 39.1875 C-10.9375 56.6775 -10.9375 74.1675 -10.9375 92.1875 C-13.9075 92.1875 -16.8775 92.1875 -19.9375 92.1875 C-20.03044259 82.43384942 -20.10138763 72.68030531 -20.14474869 62.926301 C-20.16556663 58.39642688 -20.19377747 53.86685717 -20.23925781 49.3371582 C-20.28292351 44.96048454 -20.30668062 40.5841025 -20.31700897 36.20722771 C-20.32436334 34.5427587 -20.33872435 32.8783045 -20.36042023 31.21396065 C-20.59315896 12.60928005 -20.59315896 12.60928005 -14.0859375 5.03125 C-13.20808594 4.36609375 -13.20808594 4.36609375 -12.3125 3.6875 C-11.72210937 3.2234375 -11.13171875 2.759375 -10.5234375 2.28125 C-6.99386319 -0.15293918 -4.26117458 0.02198748 0 0 Z " fill="#E6E6E6" transform="translate(902.9375,71.8125)"/>
<path d="M0 0 C-0.66 2.31 -1.32 4.62 -2 7 C-2.65226562 6.88140625 -3.30453125 6.7628125 -3.9765625 6.640625 C-8.51960983 5.97055902 -11.2246272 5.65385143 -15.5 7.5625 C-19.81547076 11.77008399 -20.29654677 17.07582737 -21.125 22.875 C-21.41375 24.89625 -21.7025 26.9175 -22 29 C-16.72 29 -11.44 29 -6 29 C-6 31.64 -6 34.28 -6 37 C-11.28 37 -16.56 37 -22 37 C-22 54.49 -22 71.98 -22 90 C-24.64 90 -27.28 90 -30 90 C-30.06966926 80.35941673 -30.12289695 70.71892083 -30.15543652 61.07814026 C-30.17105796 56.60099359 -30.19223151 52.12401983 -30.22631836 47.64697266 C-30.25903794 43.32218742 -30.27687948 38.99756797 -30.28463173 34.67266846 C-30.2901527 33.02693067 -30.30093367 31.38120142 -30.31719017 29.73553467 C-30.33913256 27.42115029 -30.34196002 25.10744127 -30.34057617 22.79296875 C-30.34723801 21.4783667 -30.35389984 20.16376465 -30.36076355 18.80932617 C-29.72813333 12.12934183 -27.37063785 6.42783104 -22.796875 1.48046875 C-16.30685377 -3.86674439 -7.16844366 -4.48027729 0 0 Z " fill="#ECECEC" transform="translate(289,74)"/>
<path d="M0 0 C5.18624277 3.04110249 9.26503753 7.12055689 11.375 12.875 C11.375 14.195 11.375 15.515 11.375 16.875 C-4.465 16.875 -20.305 16.875 -36.625 16.875 C-33.59629545 7.78888636 -31.77744831 3.16309194 -23.4453125 -1.16796875 C-15.83895266 -3.74907424 -7.28488761 -3.3538795 0 0 Z " fill="#2F2F2F" transform="translate(427.625,105.125)"/>
<path d="M0 0 C1.14739938 0.71526195 2.27587537 1.46256743 3.375 2.25 C4.73625 3.11625 4.73625 3.11625 6.125 4 C9.1130049 6.9880049 10.91956993 10.29025449 12.375 14.25 C12.375 15.24 12.375 16.23 12.375 17.25 C-3.465 17.25 -19.305 17.25 -35.625 17.25 C-32.47716717 7.8065015 -30.91140164 4.1865797 -22.625 -0.75 C-15.99634529 -2.95955157 -6.377293 -3.12132383 0 0 Z " fill="#2C2C2C" transform="translate(345.625,104.75)"/>
<path d="M0 0 C2.97 0 5.94 0 9 0 C9 21.78 9 43.56 9 66 C6.03 66 3.06 66 0 66 C0 44.22 0 22.44 0 0 Z " fill="#E4E4E4" transform="translate(860,98)"/>
<path d="M0 0 C1.32 0.66 2.64 1.32 4 2 C4 2.66 4 3.32 4 4 C5.32 4.33 6.64 4.66 8 5 C7.67 3.35 7.34 1.7 7 0 C9 1 9 1 9.81640625 3.25 C10.06261719 4.1575 10.30882812 5.065 10.5625 6 C11.26490893 9.28253366 11.26490893 9.28253366 13 12 C15.5747573 24.30176988 15.96091934 37.13070496 16.85986328 49.63305664 C17.12565629 53.32160769 17.40017918 57.00943585 17.67578125 60.69726562 C17.84947354 63.06506643 18.02266802 65.43290382 18.1953125 67.80078125 C18.27653351 68.891595 18.35775452 69.98240875 18.44143677 71.10627747 C18.86697953 77.08969045 19.08071662 83.00150141 19 89 C18.67 89 18.34 89 18 89 C17.67 87.35 17.34 85.7 17 84 C17 88.95 17 93.9 17 99 C16.67 99 16.34 99 16 99 C14.51108577 83.57079061 13.03565756 68.14043826 11.8125 52.6875 C11.72887207 51.66543457 11.64524414 50.64336914 11.55908203 49.59033203 C11.05614566 43.04783289 10.90607918 36.56081107 11 30 C11.33 30 11.66 30 12 30 C11.88573491 27.58239124 11.75900339 25.16652782 11.625 22.75 C11.5940625 22.06808594 11.563125 21.38617188 11.53125 20.68359375 C11.31740626 17.01260962 10.98922945 14.13748384 9 11 C8.67 13.31 8.34 15.62 8 18 C-0.42857143 20.28571429 -0.42857143 20.28571429 -5 20 C-5.64257562 12.77102428 -3.21421316 6.42842633 0 0 Z " fill="#79AC9F" transform="translate(52,69)"/>
<path d="M0 0 C0 0.99 0 1.98 0 3 C-0.56807373 3.28609131 -1.13614746 3.57218262 -1.72143555 3.86694336 C-21.05492166 13.65582761 -36.75712474 24.64504477 -52 40 C-50.52901622 29.57754175 -38.77400974 21.44326552 -30.85595703 15.35009766 C-9.45770728 -0.66369876 -9.45770728 -0.66369876 0 0 Z " fill="#91D0C0" transform="translate(149,96)"/>
<path d="M0 0 C4.12860424 3.52910828 4.38156533 7.81083551 5 13 C5.14347283 16.67475565 5.1257562 20.32512427 5 24 C4.67 22.68 4.34 21.36 4 20 C3.34 20 2.68 20 2 20 C1.67 17.03 1.34 14.06 1 11 C-0.13179687 11.5775 -1.26359375 12.155 -2.4296875 12.75 C-3.91135207 13.50020991 -5.39312873 14.25019847 -6.875 15 C-7.62136719 15.3815625 -8.36773437 15.763125 -9.13671875 16.15625 C-9.85214844 16.5171875 -10.56757812 16.878125 -11.3046875 17.25 C-11.96452637 17.58515625 -12.62436523 17.9203125 -13.30419922 18.265625 C-15 19 -15 19 -17 19 C-17 14.38 -17 9.76 -17 5 C-16.01 4.67 -15.02 4.34 -14 4 C-14 6.31 -14 8.62 -14 11 C-12.80375 10.505 -11.6075 10.01 -10.375 9.5 C-6.78898524 8.14088765 -3.86595201 7.7100536 0 8 C0 5.36 0 2.72 0 0 Z " fill="#91D0C0" transform="translate(60,79)"/>
<path d="M0 0 C3.30901116 1.0269345 4.0219638 2.03922107 5.75 5.125 C7.31997664 9.15602111 7.22556434 12.71427756 7 17 C-0.28571429 20.42857143 -0.28571429 20.42857143 -5 20 C-5.64257562 12.77102428 -3.21421316 6.42842633 0 0 Z " fill="#2D3433" transform="translate(52,69)"/>
<path d="M0 0 C3.13630966 0.54885419 4.42744557 0.98113919 6.5 3.4375 C7.16976495 7.00957973 7.15750013 10.1998527 5.4375 13.4375 C2.33132725 15.04068593 -0.07990979 14.86501128 -3.5 14.4375 C-6.12541413 12.23553976 -6.4445448 10.81776421 -6.9375 7.4375 C-6.5 4.4375 -6.5 4.4375 -4.8125 2.0625 C-2.5 0.4375 -2.5 0.4375 0 0 Z " fill="#E8E8E8" transform="translate(864.5,69.5625)"/>
<path d="M0 0 C2 1 2 1 2.81640625 3.25 C3.06261719 4.1575 3.30882812 5.065 3.5625 6 C4.26490893 9.28253366 4.26490893 9.28253366 6 12 C7.8839393 21.39219372 8.2612104 30.45130872 8 40 C7.67 40 7.34 40 7 40 C6.67 43.63 6.34 47.26 6 51 C5.67 51 5.34 51 5 51 C4.14626761 43.97195301 3.87890689 37.07721931 4 30 C4.33 30 4.66 30 5 30 C4.88573491 27.58239124 4.75900339 25.16652782 4.625 22.75 C4.5940625 22.06808594 4.563125 21.38617188 4.53125 20.68359375 C4.31740626 17.01260962 3.98922945 14.13748384 2 11 C1.67 13.31 1.34 15.62 1 18 C0.34 17.67 -0.32 17.34 -1 17 C-0.979375 15.783125 -0.95875 14.56625 -0.9375 13.3125 C-0.93175884 10.08022678 -1.21233685 7.15065259 -2 4 C-1.01 4.33 -0.02 4.66 1 5 C0.67 3.35 0.34 1.7 0 0 Z " fill="#73A196" transform="translate(59,69)"/>
<path d="M0 0 C0.33 1.32 0.66 2.64 1 4 C1.66 4 2.32 4 3 4 C3 14.89 3 25.78 3 37 C2.67 37 2.34 37 2 37 C-0.15649645 24.6386543 -0.22304384 12.51962211 0 0 Z " fill="#90CFBF" transform="translate(65,105)"/>
<path d="M0 0 C0.53625 0.268125 1.0725 0.53625 1.625 0.8125 C1.295 1.4725 0.965 2.1325 0.625 2.8125 C-0.365 2.8125 -1.355 2.8125 -2.375 2.8125 C-4.16705696 3.84147783 -4.16705696 3.84147783 -5.375 5.8125 C-5.88268043 8.9093286 -5.88268043 8.9093286 -5.88671875 12.44921875 C-5.92216797 13.74794922 -5.95761719 15.04667969 -5.99414062 16.38476562 C-6.0172405 17.75650517 -6.0400229 19.1282501 -6.0625 20.5 C-6.09567542 21.88349607 -6.13016531 23.26696129 -6.16601562 24.65039062 C-6.24863241 28.03767883 -6.31774058 31.42470357 -6.375 34.8125 C-7.035 34.8125 -7.695 34.8125 -8.375 34.8125 C-8.52383585 30.63173925 -8.63243418 26.45239863 -8.70458984 22.26977539 C-8.73467954 20.8486036 -8.77556404 19.42761628 -8.82763672 18.00708008 C-9.24830488 6.23249574 -9.24830488 6.23249574 -7.09619141 2.7331543 C-4.77947457 0.71656887 -3.09865563 -0.24463071 0 0 Z " fill="#707070" transform="translate(815.375,129.1875)"/>
<path d="M0 0 C0.33 0.66 0.66 1.32 1 2 C1.99 2.33 2.98 2.66 4 3 C3.34 3 2.68 3 2 3 C-0.43430815 9.57263201 -1.90109517 16.08336373 -3 23 C-2.34 23.33 -1.68 23.66 -1 24 C-1.99 24 -2.98 24 -4 24 C-4.144375 23.0925 -4.28875 22.185 -4.4375 21.25 C-4.86200634 18.1953024 -4.86200634 18.1953024 -5.68359375 16.1796875 C-6.1545309 12.93545377 -4.94225207 10.83699775 -3.625 7.875 C-3.16351563 6.82054688 -2.70203125 5.76609375 -2.2265625 4.6796875 C-1.50759675 3.10895342 -0.7725435 1.545087 0 0 Z " fill="#82BAAC" transform="translate(50,66)"/>
<path d="M0 0 C0.99 0 1.98 0 3 0 C4.04819354 7.45067301 3.91318843 13.7109102 2 21 C-0.3125 21.625 -0.3125 21.625 -3 22 C-3.99 21.34 -4.98 20.68 -6 20 C-5.37480469 19.76667969 -4.74960938 19.53335938 -4.10546875 19.29296875 C-1.36194798 17.60817214 -1.1261462 16.38366169 -0.3125 13.3125 C-0.0753125 12.42433594 0.161875 11.53617188 0.40625 10.62109375 C1.13301976 7.41278777 1.64460886 4.26959846 2 1 C1.34 0.67 0.68 0.34 0 0 Z " fill="#83BBAD" transform="translate(201,168)"/>
<path d="M0 0 C0.66 0.33 1.32 0.66 2 1 C1.34 1.66 0.68 2.32 0 3 C0.33 3.66 0.66 4.32 1 5 C0.49210937 5.42410156 -0.01578125 5.84820312 -0.5390625 6.28515625 C-5.16626354 10.22780882 -9.15591946 14.29100134 -13 19 C-13.33 18.01 -13.66 17.02 -14 16 C-10.73111464 9.61789048 -5.10065229 4.92543904 0 0 Z " fill="#7FB5A8" transform="translate(111,117)"/>
<path d="M0 0 C0.66 0.33 1.32 0.66 2 1 C1.505 1.61875 1.01 2.2375 0.5 2.875 C-1.19222773 4.83880904 -1.19222773 4.83880904 -1 7 C-2.8984375 8.4375 -2.8984375 8.4375 -5.375 10 C-7.84952162 11.57112484 -9.92383041 12.92383041 -12 15 C-12.99 14.67 -13.98 14.34 -15 14 C-10.55487173 8.41509524 -5.75545909 4.20788009 0 0 Z " fill="#8CCABA" transform="translate(125,106)"/>
<path d="M0 0 C0.33 0.66 0.66 1.32 1 2 C0.49210938 2.31453125 -0.01578125 2.6290625 -0.5390625 2.953125 C-4.74251179 5.56650546 -8.89752324 8.23082819 -13 11 C-13.66 10.67 -14.32 10.34 -15 10 C-13.7121669 8.51749445 -12.41960936 7.03909182 -11.125 5.5625 C-10.40570313 4.73878906 -9.68640625 3.91507812 -8.9453125 3.06640625 C-5.97270884 -0.091239 -4.20978281 -0.11078376 0 0 Z " fill="#7FB5A8" transform="translate(135,121)"/>
<path d="M0 0 C0.66 0 1.32 0 2 0 C2 4.62 2 9.24 2 14 C1.67 14 1.34 14 1 14 C0.67 17.63 0.34 21.26 0 25 C-0.33 25 -0.66 25 -1 25 C-3.34605189 5.68696567 -3.34605189 5.68696567 0 0 Z " fill="#7BAEA2" transform="translate(65,95)"/>
<path d="M0 0 C0.02698189 1.62490954 0.04638757 3.24994633 0.0625 4.875 C0.07410156 5.77992188 0.08570313 6.68484375 0.09765625 7.6171875 C0 10 0 10 -1 12 C-1.66 12 -2.32 12 -3 12 C-3 9.36 -3 6.72 -3 4 C-4.65 4.33 -6.3 4.66 -8 5 C-8 3.68 -8 2.36 -8 1 C-5.10765685 0.17361624 -3.11257569 0 0 0 Z " fill="#8FCDBE" transform="translate(207,164)"/>
<path d="M0 0 C0.66 0.33 1.32 0.66 2 1 C-4.27 7.27 -10.54 13.54 -17 20 C-17.66 19.67 -18.32 19.34 -19 19 C-12.98348207 12.26459665 -7.02537494 5.71692402 0 0 Z " fill="#333C3A" transform="translate(116,117)"/>
<path d="M0 0 C1.11375 0.1546875 1.11375 0.1546875 2.25 0.3125 C2.58 0.9725 2.91 1.6325 3.25 2.3125 C-1.92578125 5.53515625 -1.92578125 5.53515625 -3.75 6.3125 C-4.74 5.9825 -5.73 5.6525 -6.75 5.3125 C-3.42692308 0.38942308 -3.42692308 0.38942308 0 0 Z " fill="#92D2C2" transform="translate(132.75,120.6875)"/>
<path d="M0 0 C0 0.66 0 1.32 0 2 C-3.465 3.485 -3.465 3.485 -7 5 C-7.33 3.68 -7.66 2.36 -8 1 C-5.07175348 0.02391783 -3.04386724 -0.08226668 0 0 Z " fill="#8CC8B9" transform="translate(198,189)"/>
<path d="M0 0 C0.66 0.33 1.32 0.66 2 1 C-1.3 4.3 -4.6 7.6 -8 11 C-8 7.0234755 -6.61988497 5.9109833 -4 3 C-1.75 1.1875 -1.75 1.1875 0 0 Z " fill="#5E5E5E" transform="translate(736,106)"/>
<path d="M0 0 C0.66 0.33 1.32 0.66 2 1 C0.90220176 2.15193623 -0.20349446 3.29634937 -1.3125 4.4375 C-1.92738281 5.07558594 -2.54226563 5.71367188 -3.17578125 6.37109375 C-5 8 -5 8 -8 9 C-6.4169423 4.7257442 -3.49431596 2.73468206 0 0 Z " fill="#555555" transform="translate(569,106)"/>
<path d="M0 0 C0.66 0.33 1.32 0.66 2 1 C1.505 1.61875 1.01 2.2375 0.5 2.875 C-1.19222773 4.83880904 -1.19222773 4.83880904 -1 7 C-1.99 7.33 -2.98 7.66 -4 8 C-4.66 7.01 -5.32 6.02 -6 5 C-4.02 3.35 -2.04 1.7 0 0 Z " fill="#87C1B2" transform="translate(125,106)"/>
<path d="M0 0 C0.66 0.33 1.32 0.66 2 1 C-0.97 3.97 -3.94 6.94 -7 10 C-7 7 -7 7 -4.625 4.4375 C-3.75875 3.633125 -2.8925 2.82875 -2 2 C-1.34 1.34 -0.68 0.68 0 0 Z " fill="#D1D1D1" transform="translate(314,100)"/>
<path d="M0 0 C0.66 0.33 1.32 0.66 2 1 C-1.96 4.465 -1.96 4.465 -6 8 C-6 5 -6 5 -4.6875 3.61328125 C-3.125 2.40885417 -1.5625 1.20442708 0 0 Z " fill="#D0D0D0" transform="translate(894,73)"/>
<path d="M0 0 C0.66 0.33 1.32 0.66 2 1 C2.59355614 3.64860427 2.74209269 6.29197322 3 9 C2.67 8.34 2.34 7.68 2 7 C1.34 7 0.68 7 0 7 C-0.33 7.66 -0.66 8.32 -1 9 C-1.33 7.35 -1.66 5.7 -2 4 C-1.01 4.33 -0.02 4.66 1 5 C0.67 3.35 0.34 1.7 0 0 Z " fill="#78A99D" transform="translate(59,69)"/>
<path d="M0 0 C0.66 0.33 1.32 0.66 2 1 C0.88121617 2.17262904 -0.24523051 3.33795138 -1.375 4.5 C-2.00148438 5.1496875 -2.62796875 5.799375 -3.2734375 6.46875 C-5 8 -5 8 -7 8 C-5.50902342 4.2047869 -3.24299151 2.38957269 0 0 Z " fill="#505050" transform="translate(321,105)"/>
<path d="M0 0 C0.99 0 1.98 0 3 0 C3.33 3.63 3.66 7.26 4 11 C3.01 11.33 2.02 11.66 1 12 C1.33 8.37 1.66 4.74 2 1 C1.34 0.67 0.68 0.34 0 0 Z " fill="#6A9389" transform="translate(201,168)"/>
<path d="M0 0 C0.66 0.33 1.32 0.66 2 1 C0.88121617 2.17262904 -0.24523051 3.33795138 -1.375 4.5 C-2.00148438 5.1496875 -2.62796875 5.799375 -3.2734375 6.46875 C-5 8 -5 8 -7 8 C-5.50902342 4.2047869 -3.24299151 2.38957269 0 0 Z " fill="#CFCFCF" transform="translate(647,100)"/>
<path d="M0 0 C0.66 0.33 1.32 0.66 2 1 C1.0479279 2.00596297 0.08812654 3.00461563 -0.875 4 C-1.40867187 4.556875 -1.94234375 5.11375 -2.4921875 5.6875 C-4 7 -4 7 -6 7 C-4.60667426 3.63279613 -3.0210714 2.0140476 0 0 Z " fill="#545454" transform="translate(401,106)"/>
<path d="M0 0 C0.99 0.33 1.98 0.66 3 1 C2.67 3.31 2.34 5.62 2 8 C1.34 8 0.68 8 0 8 C0 5.36 0 2.72 0 0 Z " fill="#84BDAF" transform="translate(204,168)"/>
</svg>
