<?xml version="1.0" standalone="no"?>
<!DOCTYPE svg PUBLIC "-//W3C//DTD SVG 20010904//EN"
 "http://www.w3.org/TR/2001/REC-SVG-20010904/DTD/svg10.dtd">
<svg version="1.0" xmlns="http://www.w3.org/2000/svg"
 width="464.000000pt" height="123.000000pt" viewBox="0 0 464.000000 123.000000"
 preserveAspectRatio="xMidYMid meet">

<g transform="translate(0.000000,123.000000) scale(0.100000,-0.100000)"
fill="#000000" stroke="none">
<path d="M707 1045 c-139 -17 -241 -40 -343 -77 -79 -28 -82 -30 -107 -82 -14
-29 -29 -76 -33 -104 -8 -59 1 -65 51 -32 58 38 55 46 80 -260 16 -206 33
-284 73 -349 38 -62 71 -83 136 -89 103 -8 374 54 516 119 65 30 66 31 78 82
14 62 15 87 4 87 -5 0 -35 -9 -67 -20 -32 -11 -61 -18 -64 -14 -3 3 -9 107
-12 232 -10 292 -37 432 -96 494 -31 32 -47 33 -216 13z m216 -78 c34 -68 56
-166 67 -297 11 -132 -2 -379 -20 -390 -18 -11 -212 -48 -313 -59 -48 -6 -91
-12 -96 -15 -5 -3 -11 -26 -14 -52 -7 -70 -20 -75 -66 -26 -54 57 -86 159
-100 322 -28 308 -33 342 -68 452 -4 13 13 22 89 46 83 27 202 53 293 65 17 2
68 5 115 6 l86 1 27 -53z m-615 -126 c16 -48 16 -48 -27 -61 -29 -8 -31 -7
-31 19 0 39 20 93 33 88 6 -2 17 -22 25 -46z m842 -538 c0 -10 -5 -35 -11 -56
-13 -47 -25 -53 -227 -108 -106 -29 -176 -42 -249 -46 l-103 -6 0 46 0 45 73
12 c230 36 437 87 487 120 22 14 30 12 30 -7z"/>
<path d="M726 690 c-82 -53 -186 -148 -186 -169 0 -7 20 8 45 33 46 47 168
132 223 155 31 13 35 31 8 31 -8 0 -48 -22 -90 -50z"/>
<path d="M695 560 c-16 -16 -26 -30 -22 -30 4 0 26 14 49 30 31 22 36 30 21
30 -10 0 -32 -13 -48 -30z"/>
<path d="M2303 781 c-43 -15 -57 -31 -28 -31 11 0 15 -11 15 -41 0 -39 0 -40
-22 -25 -12 9 -31 16 -41 16 -33 0 -82 -29 -100 -59 -21 -36 -22 -122 -2 -161
28 -54 109 -78 147 -43 17 15 18 15 18 0 0 -21 17 -21 66 -1 34 15 36 18 19
24 -19 6 -20 18 -25 172 l-5 165 -42 -16z m-31 -118 c15 -13 18 -31 18 -101 0
-94 -13 -122 -57 -122 -19 0 -28 10 -45 46 -49 111 13 242 84 177z"/>
<path d="M2443 781 c-43 -15 -57 -31 -28 -31 13 0 15 -24 15 -159 0 -162 6
-187 36 -157 14 14 18 14 44 1 39 -20 79 -19 116 4 39 24 58 76 52 143 -9 87
-87 140 -156 104 l-31 -16 -3 63 -3 64 -42 -16z m133 -109 c51 -34 54 -205 4
-232 -25 -13 -64 5 -79 37 -6 13 -11 55 -11 93 0 57 4 74 20 90 21 21 47 25
66 12z"/>
<path d="M3288 781 c-39 -16 -50 -31 -23 -31 13 0 15 -23 15 -150 0 -125 -3
-152 -15 -156 -33 -13 -12 -24 45 -24 62 0 71 5 44 24 -11 8 -14 25 -12 56 l3
45 35 -48 c38 -54 74 -77 117 -76 l28 0 -23 16 c-12 9 -46 45 -74 80 l-51 65
39 35 c21 18 53 43 69 53 l30 20 -59 0 c-50 0 -57 -2 -46 -15 9 -11 8 -20 -10
-45 -12 -16 -30 -35 -41 -40 -18 -10 -19 -6 -19 94 0 58 -3 107 -7 109 -5 2
-25 -3 -45 -12z"/>
<path d="M3574 785 c-8 -21 2 -45 19 -45 20 0 40 27 33 45 -7 19 -45 20 -52 0z"/>
<path d="M1453 775 c-12 -9 -25 -31 -29 -50 -3 -19 -13 -36 -23 -38 -14 -4
-14 -5 2 -6 15 -1 17 -14 17 -116 0 -94 -3 -117 -15 -121 -33 -13 -12 -24 45
-24 57 0 78 11 45 24 -12 4 -15 27 -15 120 l0 115 33 4 32 4 -32 1 c-29 2 -33
5 -33 30 0 51 39 69 58 27 6 -14 18 -25 27 -25 21 0 19 40 -2 56 -24 18 -84
17 -110 -1z"/>
<path d="M3745 765 c-14 -13 -25 -33 -25 -45 0 -11 -7 -23 -16 -27 -15 -5 -15
-7 0 -15 13 -7 16 -28 16 -119 0 -102 -2 -111 -20 -116 -38 -10 -9 -23 51 -23
56 0 77 11 44 24 -12 4 -15 27 -15 120 l0 115 33 4 32 4 -32 1 c-28 2 -33 6
-33 26 0 37 10 56 30 56 11 0 20 -10 24 -25 7 -28 33 -34 43 -10 10 27 -26 55
-69 55 -28 0 -46 -7 -63 -25z"/>
<path d="M1644 686 c-53 -24 -74 -61 -74 -129 0 -56 2 -62 40 -99 39 -39 42
-40 92 -36 38 4 57 12 70 28 25 31 14 39 -15 12 -50 -47 -108 -21 -123 56 l-6
32 70 0 c92 0 102 5 102 46 0 72 -86 122 -156 90z m80 -28 c9 -12 16 -37 16
-55 l0 -33 -56 0 -57 0 6 36 c11 68 61 96 91 52z"/>
<path d="M1904 681 c-48 -29 -64 -59 -64 -119 0 -64 20 -104 65 -128 42 -23
113 -14 138 17 24 30 12 38 -16 11 -36 -34 -83 -29 -107 11 -11 17 -20 42 -20
55 0 21 4 22 69 22 90 0 101 5 101 44 0 38 -22 71 -60 91 -39 20 -69 19 -106
-4z m90 -23 c9 -12 16 -37 16 -55 l0 -33 -56 0 -57 0 6 36 c11 68 61 96 91 52z"/>
<path d="M2790 686 c-43 -16 -73 -61 -50 -76 22 -14 33 -7 53 33 14 30 23 37
46 37 21 0 30 -6 35 -22 9 -36 7 -58 -6 -63 -114 -39 -130 -48 -143 -77 -7
-17 -10 -39 -7 -50 13 -50 96 -65 137 -23 l25 24 0 -24 c0 -29 0 -29 51 -13
38 11 53 28 25 28 -11 0 -15 22 -18 101 -3 92 -5 103 -27 120 -26 22 -70 23
-121 5z m90 -147 c0 -36 -23 -84 -45 -93 -43 -16 -70 37 -44 85 11 21 68 51
81 43 5 -3 8 -19 8 -35z"/>
<path d="M3074 686 c-53 -24 -74 -61 -74 -129 0 -56 2 -62 40 -99 39 -39 42
-40 92 -36 38 4 57 11 71 29 12 16 15 25 7 27 -6 2 -18 -5 -26 -17 -10 -14
-26 -21 -49 -21 -45 0 -65 31 -72 107 -6 77 18 128 61 128 24 0 31 -5 37 -29
9 -33 25 -47 46 -39 20 8 15 37 -11 62 -29 28 -82 35 -122 17z"/>
<path d="M3578 687 c-40 -11 -48 -21 -23 -31 12 -4 15 -26 15 -106 0 -80 -3
-102 -15 -106 -33 -13 -12 -24 45 -24 57 0 78 11 45 24 -12 4 -15 29 -15 131
0 69 -3 124 -7 124 -5 -1 -25 -6 -45 -12z"/>
<path d="M3906 675 c12 -8 45 -68 73 -134 l52 -121 -26 -49 c-29 -58 -30 -61
-11 -61 11 0 83 172 136 326 6 17 21 36 33 42 18 9 13 11 -33 11 -43 0 -50 -2
-32 -9 12 -5 22 -11 22 -14 0 -2 -14 -41 -31 -87 l-32 -82 -34 83 c-33 79 -34
84 -17 97 15 11 8 13 -51 13 -64 0 -68 -1 -49 -15z"/>
</g>
</svg>
